<svg class="youssef_logo" width="60" height="60" viewBox="0 0 70 70" fill="none" xmlns="http://www.w3.org/2000/svg">
<g id="Plugin icon - 1" clip-path="url(#clip0)">
<rect width="70" height="70" fill=""/>
<g id="{ }" filter="url(#filter0_d)">
<path d="M10.655 46.4028C10.655 45.7941 10.7445 45.0511 10.9235 44.1738C11.1026 43.2965 11.2995 42.3566 11.5144 41.354C11.7471 40.3335 11.953 39.2861 12.132 38.2119C12.3111 37.1198 12.4006 36.0545 12.4006 35.0161C12.4006 34.5506 12.2753 34.1299 12.0246 33.7539C11.774 33.36 11.4517 33.002 11.0578 32.6797C10.6818 32.3574 10.2611 32.062 9.7956 31.7935C9.33011 31.5249 8.88252 31.2653 8.45283 31.0146C8.27379 31.14 8.00524 31.2205 7.64717 31.2563C7.28909 31.2743 6.92207 31.2295 6.54609 31.1221C6.18802 30.9967 5.87471 30.7998 5.60615 30.5312C5.3376 30.2627 5.20332 29.8957 5.20332 29.4302C5.20332 28.8394 5.26598 28.347 5.39131 27.9531C5.51663 27.5592 5.66881 27.228 5.84785 26.9595C6.04479 26.6909 6.24173 26.4761 6.43867 26.3149C6.63561 26.1359 6.81465 25.9658 6.97578 25.8047C7.72773 25.0527 8.40807 24.4798 9.0168 24.0859C9.62552 23.6742 10.1447 23.3071 10.5744 22.9849C11.0041 22.6447 11.3353 22.2777 11.5681 21.8838C11.8008 21.472 11.9172 20.8991 11.9172 20.165C11.9172 19.5563 11.8545 18.8849 11.7292 18.1509C11.6039 17.3989 11.4696 16.647 11.3264 15.895C11.1831 15.1431 11.0489 14.4269 10.9235 13.7466C10.7982 13.0483 10.7355 12.4307 10.7355 11.8936C10.7355 11.1058 10.8877 10.3628 11.1921 9.66455C11.4965 8.96631 11.953 8.35758 12.5617 7.83838C13.1704 7.31917 13.9313 6.91634 14.8444 6.62988C15.7575 6.32552 16.8228 6.17334 18.0402 6.17334C18.4341 6.17334 18.819 6.20915 19.195 6.28076C19.571 6.33447 19.9022 6.44189 20.1887 6.60303C20.493 6.74626 20.7347 6.9432 20.9138 7.19385C21.0928 7.4266 21.1823 7.71305 21.1823 8.05322C21.1823 8.64404 21.048 9.10059 20.7795 9.42285C20.5288 9.72721 20.1976 9.95996 19.7858 10.1211C19.3741 10.2822 18.9175 10.3986 18.4162 10.4702C17.9328 10.5239 17.4584 10.6045 16.9929 10.7119C16.4737 10.8193 16.1604 11.0252 16.0529 11.3296C15.9634 11.616 15.9187 11.8846 15.9187 12.1353C15.9187 12.4217 15.9455 12.8066 15.9992 13.29C16.0529 13.7734 16.1245 14.3195 16.2141 14.9282C16.3036 15.519 16.3931 16.1546 16.4826 16.835C16.59 17.5153 16.6885 18.1956 16.778 18.876C16.8675 19.5563 16.9392 20.2098 16.9929 20.8364C17.0466 21.4451 17.0734 21.9912 17.0734 22.4746C17.0734 23.1549 16.8407 23.7816 16.3752 24.3545C15.9097 24.9095 15.3457 25.4198 14.6833 25.8853C14.0388 26.3507 13.3674 26.7894 12.6691 27.2012C11.9709 27.613 11.398 28.0158 10.9504 28.4097C11.7561 28.9468 12.5438 29.4302 13.3137 29.8599C14.1014 30.2716 14.7907 30.7192 15.3815 31.2026C15.9903 31.6681 16.4826 32.2052 16.8586 32.814C17.2346 33.4048 17.4226 34.1388 17.4226 35.0161C17.4226 35.7681 17.342 36.5737 17.1809 37.4331C17.0376 38.2746 16.8765 39.116 16.6975 39.9575C16.5184 40.799 16.3483 41.5957 16.1872 42.3477C16.044 43.0996 15.9724 43.7441 15.9724 44.2812C15.9724 44.8363 16.0082 45.2749 16.0798 45.5972C16.1514 45.9015 16.2767 46.1343 16.4558 46.2954C16.6348 46.4565 16.8675 46.5729 17.154 46.6445C17.4584 46.7161 17.8433 46.7788 18.3088 46.8325C18.7564 46.8862 19.1592 46.9489 19.5173 47.0205C19.8754 47.11 20.1797 47.2264 20.4304 47.3696C20.6989 47.5308 20.9048 47.7367 21.048 47.9873C21.1913 48.2559 21.2629 48.596 21.2629 49.0078C21.2629 49.3838 21.1644 49.7061 20.9675 49.9746C20.7884 50.2432 20.5557 50.458 20.2692 50.6191C20.0007 50.7982 19.6874 50.9325 19.3293 51.022C18.9891 51.1115 18.6579 51.1562 18.3356 51.1562C16.9571 51.1562 15.7844 51.0667 14.8176 50.8877C13.8508 50.7087 13.0541 50.4222 12.4274 50.0283C11.8187 49.6523 11.3711 49.16 11.0847 48.5513C10.7982 47.9604 10.655 47.2443 10.655 46.4028ZM49.1131 49.4912C49.1131 49.0794 49.1847 48.7393 49.3279 48.4707C49.4712 48.2201 49.6681 48.0142 49.9188 47.853C50.1873 47.7098 50.5006 47.5934 50.8587 47.5039C51.2168 47.4323 51.6196 47.3696 52.0672 47.3159C52.5148 47.2622 52.8908 47.1995 53.1951 47.1279C53.4995 47.0563 53.7412 46.9399 53.9202 46.7788C54.0993 46.6177 54.2246 46.376 54.2962 46.0537C54.3678 45.7493 54.4036 45.3197 54.4036 44.7646C54.4036 44.2275 54.2962 43.5203 54.0813 42.6431C53.8844 41.7658 53.6606 40.8348 53.41 39.8501C53.1593 38.8475 52.9266 37.8538 52.7117 36.8691C52.5148 35.8844 52.4163 35.0161 52.4163 34.2642C52.4163 33.3869 52.5953 32.5902 52.9534 31.874C53.3294 31.14 53.8396 30.4775 54.4842 29.8867C55.1287 29.278 55.8896 28.723 56.7669 28.2217C57.6442 27.7025 58.602 27.2101 59.6404 26.7446C59.0317 26.673 58.3693 26.5029 57.6531 26.2344C56.9549 25.9479 56.3014 25.5809 55.6927 25.1333C55.1019 24.6678 54.6006 24.1396 54.1888 23.5488C53.7949 22.958 53.5979 22.3224 53.5979 21.6421C53.5979 20.9259 53.6159 20.1024 53.6517 19.1714C53.7054 18.2404 53.7591 17.3273 53.8128 16.4321C53.8844 15.519 53.9381 14.6776 53.9739 13.9077C54.0276 13.1379 54.0545 12.547 54.0545 12.1353C54.0545 12.0099 54.0276 11.8577 53.9739 11.6787C53.9202 11.4997 53.8307 11.3206 53.7054 11.1416C53.5979 10.9447 53.4547 10.7746 53.2757 10.6313C53.0966 10.4702 52.8729 10.3628 52.6043 10.3091C52.1209 10.3986 51.6465 10.4434 51.181 10.4434C50.7155 10.4434 50.3037 10.3717 49.9456 10.2285C49.6054 10.0674 49.3279 9.81673 49.1131 9.47656C48.8982 9.11849 48.7908 8.64404 48.7908 8.05322C48.7908 7.71305 48.8803 7.4266 49.0594 7.19385C49.2384 6.9432 49.4712 6.74626 49.7576 6.60303C50.062 6.44189 50.4021 6.33447 50.7781 6.28076C51.1541 6.20915 51.539 6.17334 51.9329 6.17334C53.1504 6.17334 54.2156 6.32552 55.1287 6.62988C56.0418 6.91634 56.8027 7.31917 57.4114 7.83838C58.0202 8.35758 58.4767 8.96631 58.7811 9.66455C59.0854 10.3628 59.2376 11.1058 59.2376 11.8936C59.2376 12.4307 59.1749 13.0483 59.0496 13.7466C58.9243 14.4269 58.79 15.1431 58.6468 15.895C58.5035 16.647 58.3693 17.3989 58.2439 18.1509C58.1186 18.8849 58.056 19.5563 58.056 20.165C58.056 20.8991 58.1634 21.5078 58.3782 21.9912C58.611 22.4746 58.9422 22.8864 59.3719 23.2266C59.8016 23.5488 60.3297 23.8353 60.9563 24.0859C61.583 24.3187 62.3081 24.5514 63.1316 24.7842C63.3644 24.8558 63.5882 24.9453 63.803 25.0527C64.0179 25.1602 64.2059 25.3123 64.367 25.5093C64.546 25.7062 64.6803 25.9658 64.7698 26.2881C64.8772 26.5924 64.931 26.9684 64.931 27.416C64.931 28.1322 64.743 28.714 64.367 29.1616C64.0089 29.6092 63.5613 29.9941 63.0242 30.3164C62.4871 30.6387 61.8963 30.9341 61.2518 31.2026C60.6072 31.4533 60.0164 31.7397 59.4793 32.062C58.9422 32.3843 58.4856 32.7782 58.1097 33.2437C57.7516 33.6912 57.5726 34.2821 57.5726 35.0161C57.5726 36.0545 57.671 37.0929 57.868 38.1313C58.0649 39.1698 58.2798 40.1724 58.5125 41.1392C58.7452 42.0881 58.9601 42.9832 59.157 43.8247C59.354 44.6662 59.4524 45.3913 59.4524 46C59.4524 47.7008 58.8348 48.981 57.5994 49.8403C56.3641 50.7176 54.3768 51.1562 51.6375 51.1562C51.3152 51.1562 51.0019 51.1383 50.6976 51.1025C50.3932 51.0667 50.1246 50.9862 49.8919 50.8608C49.6591 50.7534 49.4712 50.5923 49.3279 50.3774C49.1847 50.1626 49.1131 49.8672 49.1131 49.4912Z" fill="#9BBCDD"/>
</g>
<g id="&#226;&#128;&#152;" filter="url(#filter1_d)">
<path d="M42.656 10.9278C43.0646 11.2483 43.3868 11.7513 43.6226 12.4369C43.8474 13.1366 44.0004 13.9279 44.0816 14.8107C44.1487 15.6825 44.1645 16.605 44.1291 17.5785C44.0686 18.5549 43.9643 19.4857 43.8162 20.3707C43.643 21.2587 43.4465 22.0603 43.2269 22.7755C42.9932 23.4796 42.7382 24.0077 42.4619 24.3599C42.1415 24.7684 41.8295 25.0356 41.5259 25.1616C41.2083 25.2765 40.9051 25.3004 40.6164 25.2332C40.3026 25.1691 39.9994 25.0336 39.7066 24.8267C39.4138 24.6198 39.1195 24.4003 38.8236 24.1683C38.5982 23.9915 38.4637 23.6698 38.4201 23.2033C38.3654 22.7508 38.3691 22.2531 38.431 21.71C38.4677 21.17 38.5422 20.6254 38.6544 20.0763C38.7414 19.5302 38.8139 19.0751 38.8719 18.711C38.901 18.529 38.945 18.3133 39.0042 18.0638C39.0522 17.8285 39.0847 17.5695 39.1016 17.287C39.1184 17.0044 39.1197 16.6982 39.1053 16.3684C39.0658 16.0416 38.9786 15.6887 38.8435 15.3097C38.7629 15.0644 38.6847 14.787 38.609 14.4773C38.5334 14.1676 38.4954 13.8534 38.4951 13.5347C38.4838 13.23 38.5117 12.9333 38.5789 12.6447C38.6209 12.3591 38.7247 12.1106 38.8905 11.8993C39.1115 11.6176 39.3591 11.3453 39.6334 11.0827C39.8967 10.8341 40.1927 10.6453 40.5214 10.5163C40.825 10.3904 41.1643 10.3494 41.5394 10.3933C41.8894 10.4403 42.2616 10.6184 42.656 10.9278Z" fill="#9BBCDD"/>
</g>
<g id="&#226;&#128;&#152;_2" filter="url(#filter2_d)">
<path d="M30.6707 11.0629C31.0792 11.3833 31.4014 11.8863 31.6373 12.572C31.8621 13.2716 32.0151 14.0629 32.0962 14.9457C32.1633 15.8175 32.1792 16.7401 32.1438 17.7135C32.0832 18.69 31.9789 19.6207 31.8308 20.5057C31.6576 21.3938 31.4612 22.1954 31.2415 22.9105C31.0078 23.6146 30.7528 24.1428 30.4766 24.4949C30.1561 24.9035 29.8441 25.1707 29.5405 25.2966C29.2229 25.4115 28.9197 25.4354 28.6311 25.3683C28.3173 25.3042 28.014 25.1687 27.7212 24.9618C27.4284 24.7549 27.1341 24.5354 26.8383 24.3033C26.6129 24.1266 26.4784 23.8049 26.4347 23.3383C26.3801 22.8859 26.3837 22.3881 26.4456 21.8451C26.4824 21.305 26.5568 20.7605 26.669 20.2113C26.756 19.6652 26.8286 19.2101 26.8866 18.8461C26.9156 18.6641 26.9597 18.4483 27.0188 18.1989C27.0669 17.9635 27.0993 17.7046 27.1162 17.422C27.1331 17.1394 27.1343 16.8332 27.12 16.5034C27.0805 16.1766 26.9932 15.8238 26.8581 15.4448C26.7775 15.1995 26.6993 14.922 26.6237 14.6123C26.548 14.3027 26.51 13.9885 26.5098 13.6697C26.4985 13.365 26.5264 13.0684 26.5935 12.7797C26.6355 12.4941 26.7394 12.2456 26.9051 12.0343C27.1261 11.7526 27.3738 11.4804 27.6481 11.2177C27.9113 10.9691 28.2073 10.7803 28.536 10.6513C28.8396 10.5254 29.1789 10.4844 29.5541 10.5283C29.904 10.5753 30.2762 10.7535 30.6707 11.0629Z" fill="#9BBCDD"/>
</g>
<g id="y" filter="url(#filter3_d)">
<path d="M31.5249 53.3633C31.144 52.6895 30.7119 51.8911 30.2285 50.9683C29.7451 50.0308 29.2397 49.0493 28.7124 48.0239C28.1997 46.9839 27.6797 45.9365 27.1523 44.8818C26.6396 43.8125 26.1489 42.8018 25.6802 41.8496C25.2261 40.8828 24.8086 40.0112 24.4277 39.2349C24.0615 38.4585 23.7686 37.8359 23.5488 37.3672C23.2998 36.8545 23.124 36.4224 23.0215 36.0708C22.9189 35.7192 22.8677 35.4409 22.8677 35.2358C22.8677 34.8843 22.9336 34.562 23.0654 34.269C23.1973 33.9761 23.373 33.7271 23.5928 33.522C23.8271 33.3022 24.0908 33.1338 24.3838 33.0166C24.6768 32.8994 24.9844 32.8408 25.3066 32.8408C25.6143 32.8408 25.856 32.8921 26.0317 32.9946C26.2075 33.0972 26.354 33.2363 26.4712 33.4121C26.603 33.5879 26.7056 33.793 26.7788 34.0273C26.8667 34.2471 26.9692 34.4888 27.0864 34.7524C27.4233 35.5435 27.7896 36.3931 28.1851 37.3013C28.5952 38.2095 29.0127 39.1323 29.4375 40.0698C29.877 40.9927 30.3091 41.9155 30.7339 42.8384C31.1733 43.7466 31.5835 44.6035 31.9644 45.4092C32.3599 46.2148 32.7188 46.9546 33.041 47.6284C33.3779 48.2876 33.6562 48.8296 33.876 49.2544L42.6431 34.0713C43.0972 33.3242 43.6758 32.7383 44.3789 32.3135C45.082 31.8887 45.8071 31.6763 46.5542 31.6763C46.7446 31.6763 46.9204 31.7275 47.0815 31.8301C47.2427 31.918 47.3818 32.0425 47.499 32.2036C47.6162 32.3501 47.7041 32.5112 47.7627 32.687C47.8213 32.8628 47.8506 33.0239 47.8506 33.1704C47.8506 33.4048 47.814 33.6099 47.7407 33.7856C47.6821 33.9614 47.5576 34.1885 47.3672 34.4668C47.1768 34.7451 46.9131 35.1113 46.5762 35.5654C46.2393 36.0049 45.7998 36.6201 45.2578 37.4111C44.7305 38.1875 44.0786 39.1763 43.3022 40.3774C42.5405 41.564 41.6396 43.0361 40.5996 44.7939L35.1064 54.8354C34.623 55.6704 34.1323 56.5859 33.6343 57.582C33.1362 58.5928 32.6821 59.5742 32.272 60.5264C31.8765 61.4932 31.5469 62.3867 31.2832 63.207C31.0342 64.0273 30.9097 64.6646 30.9097 65.1187C30.9097 65.397 30.8584 65.6826 30.7559 65.9756C30.668 66.2832 30.5361 66.5615 30.3604 66.8105C30.1846 67.0596 29.9722 67.2646 29.7231 67.4258C29.4888 67.5869 29.2251 67.6675 28.9321 67.6675C28.6831 67.6675 28.3901 67.5942 28.0532 67.4478C27.7163 67.3013 27.394 67.1108 27.0864 66.8765C26.7788 66.6567 26.5151 66.4077 26.2954 66.1294C26.0757 65.8511 25.9658 65.5801 25.9658 65.3164C25.9658 64.9502 26.0391 64.4814 26.1855 63.9102C26.3467 63.3389 26.5591 62.7163 26.8228 62.0425C27.0864 61.3687 27.394 60.6729 27.7456 59.9551C28.1118 59.2373 28.5 58.5488 28.9102 57.8896L31.5249 53.3633Z" fill="#9BBCDD"/>
</g>
</g>
<defs>
<filter id="filter0_d" x="0.203323" y="3.17334" width="67.7276" height="52.9829" filterUnits="userSpaceOnUse" color-interpolation-filters="sRGB">
<feFlood flood-opacity="0" result="BackgroundImageFix"/>
<feColorMatrix in="SourceAlpha" type="matrix" values="0 0 0 0 0 0 0 0 0 0 0 0 0 0 0 0 0 0 127 0"/>
<feOffset dx="-1" dy="1"/>
<feGaussianBlur stdDeviation="2"/>
<feColorMatrix type="matrix" values="0 0 0 0 0 0 0 0 0 0 0 0 0 0 0 0 0 0 0.25 0"/>
<feBlend mode="normal" in2="BackgroundImageFix" result="effect1_dropShadow"/>
<feBlend mode="normal" in="SourceGraphic" in2="effect1_dropShadow" result="shape"/>
</filter>
<filter id="filter1_d" x="33.3817" y="7.37624" width="13.7658" height="22.8941" filterUnits="userSpaceOnUse" color-interpolation-filters="sRGB">
<feFlood flood-opacity="0" result="BackgroundImageFix"/>
<feColorMatrix in="SourceAlpha" type="matrix" values="0 0 0 0 0 0 0 0 0 0 0 0 0 0 0 0 0 0 127 0"/>
<feOffset dx="-1" dy="1"/>
<feGaussianBlur stdDeviation="2"/>
<feColorMatrix type="matrix" values="0 0 0 0 0 0 0 0 0 0 0 0 0 0 0 0 0 0 0.25 0"/>
<feBlend mode="normal" in2="BackgroundImageFix" result="effect1_dropShadow"/>
<feBlend mode="normal" in="SourceGraphic" in2="effect1_dropShadow" result="shape"/>
</filter>
<filter id="filter2_d" x="21.3963" y="7.51129" width="13.7658" height="22.8941" filterUnits="userSpaceOnUse" color-interpolation-filters="sRGB">
<feFlood flood-opacity="0" result="BackgroundImageFix"/>
<feColorMatrix in="SourceAlpha" type="matrix" values="0 0 0 0 0 0 0 0 0 0 0 0 0 0 0 0 0 0 127 0"/>
<feOffset dx="-1" dy="1"/>
<feGaussianBlur stdDeviation="2"/>
<feColorMatrix type="matrix" values="0 0 0 0 0 0 0 0 0 0 0 0 0 0 0 0 0 0 0.25 0"/>
<feBlend mode="normal" in2="BackgroundImageFix" result="effect1_dropShadow"/>
<feBlend mode="normal" in="SourceGraphic" in2="effect1_dropShadow" result="shape"/>
</filter>
<filter id="filter3_d" x="17.8677" y="28.6763" width="32.9829" height="43.9912" filterUnits="userSpaceOnUse" color-interpolation-filters="sRGB">
<feFlood flood-opacity="0" result="BackgroundImageFix"/>
<feColorMatrix in="SourceAlpha" type="matrix" values="0 0 0 0 0 0 0 0 0 0 0 0 0 0 0 0 0 0 127 0"/>
<feOffset dx="-1" dy="1"/>
<feGaussianBlur stdDeviation="2"/>
<feColorMatrix type="matrix" values="0 0 0 0 0 0 0 0 0 0 0 0 0 0 0 0 0 0 0.25 0"/>
<feBlend mode="normal" in2="BackgroundImageFix" result="effect1_dropShadow"/>
<feBlend mode="normal" in="SourceGraphic" in2="effect1_dropShadow" result="shape"/>
</filter>
<clipPath id="clip0">
<rect width="70" height="70" fill=""/>
</clipPath>
</defs>
</svg>
