<svg width="70" height="70" viewBox="0 0 70 70" fill="none" xmlns="http://www.w3.org/2000/svg">
<g id="Plugin icon - 1" clip-path="url(#clip0)">
<rect width="70" height="70" fill="white"/>
<path id="{ }" d="M10.1846 42.4028C10.1846 41.7941 10.2741 41.0511 10.4531 40.1738C10.6322 39.2965 10.8291 38.3566 11.0439 37.354C11.2767 36.3335 11.4826 35.2861 11.6616 34.2119C11.8407 33.1198 11.9302 32.0545 11.9302 31.0161C11.9302 30.5506 11.8049 30.1299 11.5542 29.7539C11.3035 29.36 10.9813 29.002 10.5874 28.6797C10.2114 28.3574 9.79069 28.062 9.3252 27.7935C8.8597 27.5249 8.41211 27.2653 7.98242 27.0146C7.80339 27.14 7.53483 27.2205 7.17676 27.2563C6.81868 27.2743 6.45166 27.2295 6.07568 27.1221C5.71761 26.9967 5.4043 26.7998 5.13574 26.5312C4.86719 26.2627 4.73291 25.8957 4.73291 25.4302C4.73291 24.8394 4.79557 24.347 4.9209 23.9531C5.04622 23.5592 5.1984 23.228 5.37744 22.9595C5.57438 22.6909 5.77132 22.4761 5.96826 22.3149C6.1652 22.1359 6.34424 21.9658 6.50537 21.8047C7.25732 21.0527 7.93766 20.4798 8.54639 20.0859C9.15511 19.6742 9.67432 19.3071 10.104 18.9849C10.5337 18.6447 10.8649 18.2777 11.0977 17.8838C11.3304 17.472 11.4468 16.8991 11.4468 16.165C11.4468 15.5563 11.3841 14.8849 11.2588 14.1509C11.1335 13.3989 10.9992 12.647 10.856 11.895C10.7127 11.1431 10.5785 10.4269 10.4531 9.74658C10.3278 9.04834 10.2651 8.43066 10.2651 7.89355C10.2651 7.10579 10.4173 6.36279 10.7217 5.66455C11.026 4.96631 11.4826 4.35758 12.0913 3.83838C12.7 3.31917 13.4609 2.91634 14.374 2.62988C15.2871 2.32552 16.3524 2.17334 17.5698 2.17334C17.9637 2.17334 18.3486 2.20915 18.7246 2.28076C19.1006 2.33447 19.4318 2.44189 19.7183 2.60303C20.0226 2.74626 20.2643 2.9432 20.4434 3.19385C20.6224 3.4266 20.7119 3.71305 20.7119 4.05322C20.7119 4.64404 20.5776 5.10059 20.3091 5.42285C20.0584 5.72721 19.7272 5.95996 19.3154 6.12109C18.9036 6.28223 18.4471 6.3986 17.9458 6.47021C17.4624 6.52393 16.988 6.60449 16.5225 6.71191C16.0033 6.81934 15.6899 7.02523 15.5825 7.32959C15.493 7.61605 15.4482 7.8846 15.4482 8.13525C15.4482 8.42171 15.4751 8.80664 15.5288 9.29004C15.5825 9.77344 15.6541 10.3195 15.7437 10.9282C15.8332 11.519 15.9227 12.1546 16.0122 12.835C16.1196 13.5153 16.2181 14.1956 16.3076 14.876C16.3971 15.5563 16.4688 16.2098 16.5225 16.8364C16.5762 17.4451 16.603 17.9912 16.603 18.4746C16.603 19.1549 16.3703 19.7816 15.9048 20.3545C15.4393 20.9095 14.8753 21.4198 14.2129 21.8853C13.5684 22.3507 12.897 22.7894 12.1987 23.2012C11.5005 23.613 10.9276 24.0158 10.48 24.4097C11.2856 24.9468 12.0734 25.4302 12.8433 25.8599C13.631 26.2716 14.3203 26.7192 14.9111 27.2026C15.5199 27.6681 16.0122 28.2052 16.3882 28.814C16.7642 29.4048 16.9521 30.1388 16.9521 31.0161C16.9521 31.7681 16.8716 32.5737 16.7104 33.4331C16.5672 34.2746 16.4061 35.116 16.2271 35.9575C16.048 36.799 15.8779 37.5957 15.7168 38.3477C15.5736 39.0996 15.502 39.7441 15.502 40.2812C15.502 40.8363 15.5378 41.2749 15.6094 41.5972C15.681 41.9015 15.8063 42.1343 15.9854 42.2954C16.1644 42.4565 16.3971 42.5729 16.6836 42.6445C16.988 42.7161 17.3729 42.7788 17.8384 42.8325C18.286 42.8862 18.6888 42.9489 19.0469 43.0205C19.4049 43.11 19.7093 43.2264 19.96 43.3696C20.2285 43.5308 20.4344 43.7367 20.5776 43.9873C20.7209 44.2559 20.7925 44.596 20.7925 45.0078C20.7925 45.3838 20.694 45.7061 20.4971 45.9746C20.318 46.2432 20.0853 46.458 19.7988 46.6191C19.5303 46.7982 19.217 46.9325 18.8589 47.022C18.5187 47.1115 18.1875 47.1562 17.8652 47.1562C16.4867 47.1562 15.314 47.0667 14.3472 46.8877C13.3804 46.7087 12.5837 46.4222 11.957 46.0283C11.3483 45.6523 10.9007 45.16 10.6143 44.5513C10.3278 43.9604 10.1846 43.2443 10.1846 42.4028ZM48.6427 45.4912C48.6427 45.0794 48.7143 44.7393 48.8575 44.4707C49.0008 44.2201 49.1977 44.0142 49.4483 43.853C49.7169 43.7098 50.0302 43.5934 50.3883 43.5039C50.7464 43.4323 51.1492 43.3696 51.5968 43.3159C52.0444 43.2622 52.4203 43.1995 52.7247 43.1279C53.0291 43.0563 53.2708 42.9399 53.4498 42.7788C53.6288 42.6177 53.7542 42.376 53.8258 42.0537C53.8974 41.7493 53.9332 41.3197 53.9332 40.7646C53.9332 40.2275 53.8258 39.5203 53.6109 38.6431C53.414 37.7658 53.1902 36.8348 52.9396 35.8501C52.6889 34.8475 52.4562 33.8538 52.2413 32.8691C52.0444 31.8844 51.9459 31.0161 51.9459 30.2642C51.9459 29.3869 52.1249 28.5902 52.483 27.874C52.859 27.14 53.3692 26.4775 54.0138 25.8867C54.6583 25.278 55.4192 24.723 56.2965 24.2217C57.1738 23.7025 58.1316 23.2101 59.17 22.7446C58.5613 22.673 57.8989 22.5029 57.1827 22.2344C56.4845 21.9479 55.831 21.5809 55.2223 21.1333C54.6314 20.6678 54.1301 20.1396 53.7184 19.5488C53.3245 18.958 53.1275 18.3224 53.1275 17.6421C53.1275 16.9259 53.1454 16.1024 53.1813 15.1714C53.235 14.2404 53.2887 13.3273 53.3424 12.4321C53.414 11.519 53.4677 10.6776 53.5035 9.90771C53.5572 9.13786 53.5841 8.54704 53.5841 8.13525C53.5841 8.00993 53.5572 7.85775 53.5035 7.67871C53.4498 7.49967 53.3603 7.32064 53.235 7.1416C53.1275 6.94466 52.9843 6.77458 52.8053 6.63135C52.6262 6.47021 52.4024 6.36279 52.1339 6.30908C51.6505 6.3986 51.176 6.44336 50.7105 6.44336C50.2451 6.44336 49.8333 6.37174 49.4752 6.22852C49.135 6.06738 48.8575 5.81673 48.6427 5.47656C48.4278 5.11849 48.3204 4.64404 48.3204 4.05322C48.3204 3.71305 48.4099 3.4266 48.589 3.19385C48.768 2.9432 49.0008 2.74626 49.2872 2.60303C49.5916 2.44189 49.9317 2.33447 50.3077 2.28076C50.6837 2.20915 51.0686 2.17334 51.4625 2.17334C52.6799 2.17334 53.7452 2.32552 54.6583 2.62988C55.5714 2.91634 56.3323 3.31917 56.941 3.83838C57.5497 4.35758 58.0063 4.96631 58.3106 5.66455C58.615 6.36279 58.7672 7.10579 58.7672 7.89355C58.7672 8.43066 58.7045 9.04834 58.5792 9.74658C58.4539 10.4269 58.3196 11.1431 58.1764 11.895C58.0331 12.647 57.8989 13.3989 57.7735 14.1509C57.6482 14.8849 57.5855 15.5563 57.5855 16.165C57.5855 16.8991 57.693 17.5078 57.9078 17.9912C58.1406 18.4746 58.4718 18.8864 58.9015 19.2266C59.3312 19.5488 59.8593 19.8353 60.4859 20.0859C61.1126 20.3187 61.8377 20.5514 62.6612 20.7842C62.894 20.8558 63.1178 20.9453 63.3326 21.0527C63.5475 21.1602 63.7355 21.3123 63.8966 21.5093C64.0756 21.7062 64.2099 21.9658 64.2994 22.2881C64.4068 22.5924 64.4605 22.9684 64.4605 23.416C64.4605 24.1322 64.2726 24.714 63.8966 25.1616C63.5385 25.6092 63.0909 25.9941 62.5538 26.3164C62.0167 26.6387 61.4259 26.9341 60.7813 27.2026C60.1368 27.4533 59.546 27.7397 59.0089 28.062C58.4718 28.3843 58.0152 28.7782 57.6393 29.2437C57.2812 29.6912 57.1021 30.2821 57.1021 31.0161C57.1021 32.0545 57.2006 33.0929 57.3976 34.1313C57.5945 35.1698 57.8093 36.1724 58.0421 37.1392C58.2748 38.0881 58.4897 38.9832 58.6866 39.8247C58.8836 40.6662 58.982 41.3913 58.982 42C58.982 43.7008 58.3644 44.981 57.129 45.8403C55.8937 46.7176 53.9063 47.1562 51.1671 47.1562C50.8448 47.1562 50.5315 47.1383 50.2271 47.1025C49.9228 47.0667 49.6542 46.9862 49.4215 46.8608C49.1887 46.7534 49.0008 46.5923 48.8575 46.3774C48.7143 46.1626 48.6427 45.8672 48.6427 45.4912Z" fill="#9BBCDD"/>
<path id="&#226;&#128;&#152;" d="M42.656 7.92784C43.0646 8.24828 43.3868 8.7513 43.6226 9.4369C43.8474 10.1366 44.0004 10.9279 44.0816 11.8107C44.1487 12.6825 44.1645 13.605 44.1291 14.5785C44.0686 15.5549 43.9643 16.4857 43.8162 17.3707C43.643 18.2587 43.4465 19.0603 43.2269 19.7755C42.9932 20.4796 42.7382 21.0077 42.4619 21.3599C42.1415 21.7684 41.8295 22.0356 41.5259 22.1616C41.2083 22.2765 40.9051 22.3004 40.6164 22.2332C40.3026 22.1691 39.9994 22.0336 39.7066 21.8267C39.4138 21.6198 39.1195 21.4003 38.8236 21.1683C38.5982 20.9915 38.4637 20.6698 38.4201 20.2033C38.3654 19.7508 38.3691 19.2531 38.431 18.71C38.4677 18.17 38.5422 17.6254 38.6544 17.0763C38.7414 16.5302 38.8139 16.0751 38.8719 15.711C38.901 15.529 38.945 15.3133 39.0042 15.0638C39.0522 14.8285 39.0847 14.5695 39.1016 14.287C39.1184 14.0044 39.1197 13.6982 39.1053 13.3684C39.0658 13.0416 38.9786 12.6887 38.8435 12.3097C38.7629 12.0644 38.6847 11.787 38.609 11.4773C38.5334 11.1676 38.4954 10.8534 38.4951 10.5347C38.4838 10.23 38.5117 9.93333 38.5789 9.64468C38.6209 9.35906 38.7247 9.1106 38.8905 8.89929C39.1115 8.61755 39.3591 8.34534 39.6334 8.08266C39.8967 7.83407 40.1927 7.64528 40.5214 7.5163C40.825 7.39036 41.1643 7.34935 41.5394 7.39329C41.8894 7.44026 42.2616 7.61845 42.656 7.92784Z" fill="#9BBCDD"/>
<path id="&#226;&#128;&#152;_2" d="M30.6707 8.06288C31.0792 8.38333 31.4014 8.88635 31.6373 9.57195C31.8621 10.2716 32.0151 11.0629 32.0962 11.9457C32.1633 12.8175 32.1792 13.7401 32.1438 14.7135C32.0832 15.69 31.9789 16.6207 31.8308 17.5057C31.6576 18.3938 31.4612 19.1954 31.2415 19.9105C31.0078 20.6146 30.7528 21.1428 30.4766 21.4949C30.1561 21.9035 29.8441 22.1707 29.5405 22.2966C29.2229 22.4115 28.9197 22.4354 28.6311 22.3683C28.3173 22.3042 28.014 22.1687 27.7212 21.9618C27.4284 21.7549 27.1341 21.5354 26.8383 21.3033C26.6129 21.1266 26.4784 20.8049 26.4347 20.3383C26.3801 19.8859 26.3837 19.3881 26.4456 18.8451C26.4824 18.305 26.5568 17.7605 26.669 17.2113C26.756 16.6652 26.8286 16.2101 26.8866 15.8461C26.9156 15.6641 26.9597 15.4483 27.0188 15.1989C27.0669 14.9635 27.0993 14.7046 27.1162 14.422C27.1331 14.1394 27.1343 13.8332 27.12 13.5034C27.0805 13.1766 26.9932 12.8238 26.8581 12.4448C26.7775 12.1995 26.6993 11.922 26.6237 11.6123C26.548 11.3027 26.51 10.9885 26.5098 10.6697C26.4985 10.365 26.5264 10.0684 26.5935 9.77972C26.6355 9.49411 26.7394 9.24565 26.9051 9.03434C27.1261 8.7526 27.3738 8.48039 27.6481 8.21771C27.9113 7.96912 28.2073 7.78033 28.536 7.65135C28.8396 7.5254 29.1789 7.4844 29.5541 7.52834C29.904 7.57531 30.2762 7.75349 30.6707 8.06288Z" fill="#9BBCDD"/>
<path id="y" d="M31.5249 50.3633C31.144 49.6895 30.7119 48.8911 30.2285 47.9683C29.7451 47.0308 29.2397 46.0493 28.7124 45.0239C28.1997 43.9839 27.6797 42.9365 27.1523 41.8818C26.6396 40.8125 26.1489 39.8018 25.6802 38.8496C25.2261 37.8828 24.8086 37.0112 24.4277 36.2349C24.0615 35.4585 23.7686 34.8359 23.5488 34.3672C23.2998 33.8545 23.124 33.4224 23.0215 33.0708C22.9189 32.7192 22.8677 32.4409 22.8677 32.2358C22.8677 31.8843 22.9336 31.562 23.0654 31.269C23.1973 30.9761 23.373 30.7271 23.5928 30.522C23.8271 30.3022 24.0908 30.1338 24.3838 30.0166C24.6768 29.8994 24.9844 29.8408 25.3066 29.8408C25.6143 29.8408 25.856 29.8921 26.0317 29.9946C26.2075 30.0972 26.354 30.2363 26.4712 30.4121C26.603 30.5879 26.7056 30.793 26.7788 31.0273C26.8667 31.2471 26.9692 31.4888 27.0864 31.7524C27.4233 32.5435 27.7896 33.3931 28.1851 34.3013C28.5952 35.2095 29.0127 36.1323 29.4375 37.0698C29.877 37.9927 30.3091 38.9155 30.7339 39.8384C31.1733 40.7466 31.5835 41.6035 31.9644 42.4092C32.3599 43.2148 32.7188 43.9546 33.041 44.6284C33.3779 45.2876 33.6562 45.8296 33.876 46.2544L42.6431 31.0713C43.0972 30.3242 43.6758 29.7383 44.3789 29.3135C45.082 28.8887 45.8071 28.6763 46.5542 28.6763C46.7446 28.6763 46.9204 28.7275 47.0815 28.8301C47.2427 28.918 47.3818 29.0425 47.499 29.2036C47.6162 29.3501 47.7041 29.5112 47.7627 29.687C47.8213 29.8628 47.8506 30.0239 47.8506 30.1704C47.8506 30.4048 47.814 30.6099 47.7407 30.7856C47.6821 30.9614 47.5576 31.1885 47.3672 31.4668C47.1768 31.7451 46.9131 32.1113 46.5762 32.5654C46.2393 33.0049 45.7998 33.6201 45.2578 34.4111C44.7305 35.1875 44.0786 36.1763 43.3022 37.3774C42.5405 38.564 41.6396 40.0361 40.5996 41.7939L35.1064 51.8354C34.623 52.6704 34.1323 53.5859 33.6343 54.582C33.1362 55.5928 32.6821 56.5742 32.272 57.5264C31.8765 58.4932 31.5469 59.3867 31.2832 60.207C31.0342 61.0273 30.9097 61.6646 30.9097 62.1187C30.9097 62.397 30.8584 62.6826 30.7559 62.9756C30.668 63.2832 30.5361 63.5615 30.3604 63.8105C30.1846 64.0596 29.9722 64.2646 29.7231 64.4258C29.4888 64.5869 29.2251 64.6675 28.9321 64.6675C28.6831 64.6675 28.3901 64.5942 28.0532 64.4478C27.7163 64.3013 27.394 64.1108 27.0864 63.8765C26.7788 63.6567 26.5151 63.4077 26.2954 63.1294C26.0757 62.8511 25.9658 62.5801 25.9658 62.3164C25.9658 61.9502 26.0391 61.4814 26.1855 60.9102C26.3467 60.3389 26.5591 59.7163 26.8228 59.0425C27.0864 58.3687 27.394 57.6729 27.7456 56.9551C28.1118 56.2373 28.5 55.5488 28.9102 54.8896L31.5249 50.3633Z" fill="#9BBCDD"/>
</g>
<defs>
<clipPath id="clip0">
<rect width="70" height="70" fill="white"/>
</clipPath>
</defs>
</svg>
